<svg width="14" height="16" viewBox="0 0 14 16" fill="none" xmlns="http://www.w3.org/2000/svg">
<path fill-rule="evenodd" clip-rule="evenodd" d="M12.5 1.5H1.5V4.5C1.5 5.05228 1.94772 5.5 2.5 5.5H11.5C12.0523 5.5 12.5 5.05228 12.5 4.5V1.5ZM14 0H12.5H1.5H0V1.5V4.5C0 5.88071 1.11929 7 2.5 7H11.5C12.8807 7 14 5.88071 14 4.5V1.5V0ZM1.5 13.5V10.5H12.5V13.5C12.5 14.0523 12.0523 14.5 11.5 14.5H2.5C1.94772 14.5 1.5 14.0523 1.5 13.5ZM0 9H1.5H12.5H14V10.5V13.5C14 14.8807 12.8807 16 11.5 16H2.5C1.11929 16 0 14.8807 0 13.5V10.5V9ZM3.75 13.25C4.16421 13.25 4.5 12.9142 4.5 12.5C4.5 12.0858 4.16421 11.75 3.75 11.75C3.33579 11.75 3 12.0858 3 12.5C3 12.9142 3.33579 13.25 3.75 13.25ZM7 12.5C7 12.9142 6.66421 13.25 6.25 13.25C5.83579 13.25 5.5 12.9142 5.5 12.5C5.5 12.0858 5.83579 11.75 6.25 11.75C6.66421 11.75 7 12.0858 7 12.5ZM9.5 3.5C9.5 3.91421 9.8358 4.25 10.25 4.25C10.6642 4.25 11 3.91421 11 3.5C11 3.08579 10.6642 2.75 10.25 2.75C9.8358 2.75 9.5 3.08579 9.5 3.5ZM7.75 4.25C7.33579 4.25 7 3.91421 7 3.5C7 3.08579 7.33579 2.75 7.75 2.75C8.16421 2.75 8.5 3.08579 8.5 3.5C8.5 3.91421 8.16421 4.25 7.75 4.25Z" fill="#EC865E"/>
</svg>
