<svg width="1067" height="1067" viewBox="0 0 1067 1067" fill="none" xmlns="http://www.w3.org/2000/svg">
<path d="M57.0663 1H1V57.0663H57.0663V1Z" stroke="#252525" stroke-width="0.630746"/>
<path d="M113.133 1.00012H57.0664V57.0665H113.133V1.00012Z" stroke="#252525" stroke-width="0.630746"/>
<path d="M169.199 1.00012H113.133V57.0665H169.199V1.00012Z" stroke="#252525" stroke-width="0.630746"/>
<path d="M225.266 1.00012H169.199V57.0665H225.266V1.00012Z" stroke="#252525" stroke-width="0.630746"/>
<path d="M281.331 1.00012H225.265V57.0665H281.331V1.00012Z" stroke="#252525" stroke-width="0.630746"/>
<path d="M337.398 1.00012H281.332V57.0665H337.398V1.00012Z" stroke="#252525" stroke-width="0.630746"/>
<path d="M393.464 1.00012H337.398V57.0665H393.464V1.00012Z" stroke="#252525" stroke-width="0.630746"/>
<path d="M449.531 1.00012H393.464V57.0665H449.531V1.00012Z" stroke="#252525" stroke-width="0.630746"/>
<path d="M505.597 1.00012H449.531V57.0665H505.597V1.00012Z" stroke="#252525" stroke-width="0.630746"/>
<path d="M561.663 1.00012H505.597V57.0665H561.663V1.00012Z" stroke="#252525" stroke-width="0.630746"/>
<path d="M617.729 1.00012H561.663V57.0665H617.729V1.00012Z" stroke="#252525" stroke-width="0.630746"/>
<path d="M673.796 1.00012H617.729V57.0665H673.796V1.00012Z" stroke="#252525" stroke-width="0.630746"/>
<path d="M729.862 1.00012H673.796V57.0665H729.862V1.00012Z" stroke="#252525" stroke-width="0.630746"/>
<path d="M785.929 1.00012H729.863V57.0665H785.929V1.00012Z" stroke="#252525" stroke-width="0.630746"/>
<path d="M841.995 1.00012H785.929V57.0665H841.995V1.00012Z" stroke="#252525" stroke-width="0.630746"/>
<path d="M898.061 1.00012H841.995V57.0665H898.061V1.00012Z" stroke="#252525" stroke-width="0.630746"/>
<path d="M954.128 1.00012H898.062V57.0665H954.128V1.00012Z" stroke="#252525" stroke-width="0.630746"/>
<path d="M1010.19 1.00012H954.127V57.0665H1010.19V1.00012Z" stroke="#252525" stroke-width="0.630746"/>
<path d="M1066.26 1.00012H1010.19V57.0665H1066.26V1.00012Z" stroke="#252525" stroke-width="0.630746"/>
<path d="M57.0663 57.0665H1V113.133H57.0663V57.0665Z" stroke="#252525" stroke-width="0.630746"/>
<path d="M113.133 57.0665H57.0664V113.133H113.133V57.0665Z" stroke="#252525" stroke-width="0.630746"/>
<path d="M169.199 57.0665H113.133V113.133H169.199V57.0665Z" stroke="#252525" stroke-width="0.630746"/>
<path d="M225.266 57.0665H169.199V113.133H225.266V57.0665Z" stroke="#252525" stroke-width="0.630746"/>
<path d="M281.331 57.0665H225.265V113.133H281.331V57.0665Z" stroke="#252525" stroke-width="0.630746"/>
<path d="M337.398 57.0665H281.332V113.133H337.398V57.0665Z" stroke="#252525" stroke-width="0.630746"/>
<path d="M393.464 57.0665H337.398V113.133H393.464V57.0665Z" stroke="#252525" stroke-width="0.630746"/>
<path d="M449.531 57.0665H393.464V113.133H449.531V57.0665Z" stroke="#252525" stroke-width="0.630746"/>
<path d="M505.597 57.0665H449.531V113.133H505.597V57.0665Z" stroke="#252525" stroke-width="0.630746"/>
<path d="M561.663 57.0665H505.597V113.133H561.663V57.0665Z" stroke="#252525" stroke-width="0.630746"/>
<path d="M617.729 57.0665H561.663V113.133H617.729V57.0665Z" stroke="#252525" stroke-width="0.630746"/>
<path d="M673.796 57.0665H617.729V113.133H673.796V57.0665Z" stroke="#252525" stroke-width="0.630746"/>
<path d="M729.862 57.0665H673.796V113.133H729.862V57.0665Z" stroke="#252525" stroke-width="0.630746"/>
<path d="M785.929 57.0665H729.863V113.133H785.929V57.0665Z" stroke="#252525" stroke-width="0.630746"/>
<path d="M841.995 57.0665H785.929V113.133H841.995V57.0665Z" stroke="#252525" stroke-width="0.630746"/>
<path d="M898.061 57.0665H841.995V113.133H898.061V57.0665Z" stroke="#252525" stroke-width="0.630746"/>
<path d="M954.128 57.0665H898.062V113.133H954.128V57.0665Z" stroke="#252525" stroke-width="0.630746"/>
<path d="M1010.19 57.0665H954.127V113.133H1010.19V57.0665Z" stroke="#252525" stroke-width="0.630746"/>
<path d="M1066.26 57.0665H1010.19V113.133H1066.26V57.0665Z" stroke="#252525" stroke-width="0.630746"/>
<path d="M57.0663 113.133H1V169.199H57.0663V113.133Z" stroke="#252525" stroke-width="0.630746"/>
<path d="M113.133 113.133H57.0664V169.199H113.133V113.133Z" stroke="#252525" stroke-width="0.630746"/>
<path d="M169.199 113.133H113.133V169.199H169.199V113.133Z" stroke="#252525" stroke-width="0.630746"/>
<path d="M225.266 113.133H169.199V169.199H225.266V113.133Z" stroke="#252525" stroke-width="0.630746"/>
<path d="M281.331 113.133H225.265V169.199H281.331V113.133Z" stroke="#252525" stroke-width="0.630746"/>
<path d="M337.398 113.133H281.332V169.199H337.398V113.133Z" stroke="#252525" stroke-width="0.630746"/>
<path d="M393.464 113.133H337.398V169.199H393.464V113.133Z" stroke="#252525" stroke-width="0.630746"/>
<path d="M449.531 113.133H393.464V169.199H449.531V113.133Z" stroke="#252525" stroke-width="0.630746"/>
<path d="M505.597 113.133H449.531V169.199H505.597V113.133Z" stroke="#252525" stroke-width="0.630746"/>
<path d="M561.663 113.133H505.597V169.199H561.663V113.133Z" stroke="#252525" stroke-width="0.630746"/>
<path d="M617.729 113.133H561.663V169.199H617.729V113.133Z" stroke="#252525" stroke-width="0.630746"/>
<path d="M673.796 113.133H617.729V169.199H673.796V113.133Z" stroke="#252525" stroke-width="0.630746"/>
<path d="M729.862 113.133H673.796V169.199H729.862V113.133Z" stroke="#252525" stroke-width="0.630746"/>
<path d="M785.929 113.133H729.863V169.199H785.929V113.133Z" stroke="#252525" stroke-width="0.630746"/>
<path d="M841.995 113.133H785.929V169.199H841.995V113.133Z" stroke="#252525" stroke-width="0.630746"/>
<path d="M898.061 113.133H841.995V169.199H898.061V113.133Z" stroke="#252525" stroke-width="0.630746"/>
<path d="M954.128 113.133H898.062V169.199H954.128V113.133Z" stroke="#252525" stroke-width="0.630746"/>
<path d="M1010.19 113.133H954.127V169.199H1010.19V113.133Z" stroke="#252525" stroke-width="0.630746"/>
<path d="M1066.26 113.133H1010.19V169.199H1066.26V113.133Z" stroke="#252525" stroke-width="0.630746"/>
<path d="M57.0663 169.199H1V225.265H57.0663V169.199Z" stroke="#252525" stroke-width="0.630746"/>
<path d="M113.133 169.199H57.0664V225.265H113.133V169.199Z" stroke="#252525" stroke-width="0.630746"/>
<path d="M169.199 169.199H113.133V225.265H169.199V169.199Z" stroke="#252525" stroke-width="0.630746"/>
<path d="M225.266 169.199H169.199V225.265H225.266V169.199Z" stroke="#252525" stroke-width="0.630746"/>
<path d="M281.331 169.199H225.265V225.265H281.331V169.199Z" stroke="#252525" stroke-width="0.630746"/>
<path d="M337.398 169.199H281.332V225.265H337.398V169.199Z" stroke="#252525" stroke-width="0.630746"/>
<path d="M393.464 169.199H337.398V225.265H393.464V169.199Z" stroke="#252525" stroke-width="0.630746"/>
<path d="M449.531 169.199H393.464V225.265H449.531V169.199Z" stroke="#252525" stroke-width="0.630746"/>
<path d="M505.597 169.199H449.531V225.265H505.597V169.199Z" stroke="#252525" stroke-width="0.630746"/>
<path d="M561.663 169.199H505.597V225.265H561.663V169.199Z" stroke="#252525" stroke-width="0.630746"/>
<path d="M617.729 169.199H561.663V225.265H617.729V169.199Z" stroke="#252525" stroke-width="0.630746"/>
<path d="M673.796 169.199H617.729V225.265H673.796V169.199Z" stroke="#252525" stroke-width="0.630746"/>
<path d="M729.862 169.199H673.796V225.265H729.862V169.199Z" stroke="#252525" stroke-width="0.630746"/>
<path d="M785.929 169.199H729.863V225.265H785.929V169.199Z" stroke="#252525" stroke-width="0.630746"/>
<path d="M841.995 169.199H785.929V225.265H841.995V169.199Z" stroke="#252525" stroke-width="0.630746"/>
<path d="M898.061 169.199H841.995V225.265H898.061V169.199Z" stroke="#252525" stroke-width="0.630746"/>
<path d="M954.128 169.199H898.062V225.265H954.128V169.199Z" stroke="#252525" stroke-width="0.630746"/>
<path d="M1010.19 169.199H954.127V225.265H1010.19V169.199Z" stroke="#252525" stroke-width="0.630746"/>
<path d="M1066.26 169.199H1010.19V225.265H1066.26V169.199Z" stroke="#252525" stroke-width="0.630746"/>
<path d="M57.0663 225.266H1V281.332H57.0663V225.266Z" stroke="#252525" stroke-width="0.630746"/>
<path d="M113.133 225.266H57.0664V281.332H113.133V225.266Z" stroke="#252525" stroke-width="0.630746"/>
<path d="M169.199 225.266H113.133V281.332H169.199V225.266Z" stroke="#252525" stroke-width="0.630746"/>
<path d="M225.266 225.266H169.199V281.332H225.266V225.266Z" stroke="#252525" stroke-width="0.630746"/>
<path d="M281.331 225.266H225.265V281.332H281.331V225.266Z" stroke="#252525" stroke-width="0.630746"/>
<path d="M337.398 225.266H281.332V281.332H337.398V225.266Z" stroke="#252525" stroke-width="0.630746"/>
<path d="M393.464 225.266H337.398V281.332H393.464V225.266Z" stroke="#252525" stroke-width="0.630746"/>
<path d="M449.531 225.266H393.464V281.332H449.531V225.266Z" stroke="#252525" stroke-width="0.630746"/>
<path d="M505.597 225.266H449.531V281.332H505.597V225.266Z" stroke="#252525" stroke-width="0.630746"/>
<path d="M561.663 225.266H505.597V281.332H561.663V225.266Z" stroke="#252525" stroke-width="0.630746"/>
<path d="M617.729 225.266H561.663V281.332H617.729V225.266Z" stroke="#252525" stroke-width="0.630746"/>
<path d="M673.796 225.266H617.729V281.332H673.796V225.266Z" stroke="#252525" stroke-width="0.630746"/>
<path d="M729.862 225.266H673.796V281.332H729.862V225.266Z" stroke="#252525" stroke-width="0.630746"/>
<path d="M785.929 225.266H729.863V281.332H785.929V225.266Z" stroke="#252525" stroke-width="0.630746"/>
<path d="M841.995 225.266H785.929V281.332H841.995V225.266Z" stroke="#252525" stroke-width="0.630746"/>
<path d="M898.061 225.266H841.995V281.332H898.061V225.266Z" stroke="#252525" stroke-width="0.630746"/>
<path d="M954.128 225.266H898.062V281.332H954.128V225.266Z" stroke="#252525" stroke-width="0.630746"/>
<path d="M1010.19 225.266H954.127V281.332H1010.19V225.266Z" stroke="#252525" stroke-width="0.630746"/>
<path d="M1066.26 225.266H1010.19V281.332H1066.26V225.266Z" stroke="#252525" stroke-width="0.630746"/>
<path d="M57.0663 281.332H1V337.398H57.0663V281.332Z" stroke="#252525" stroke-width="0.630746"/>
<path d="M113.133 281.332H57.0664V337.398H113.133V281.332Z" stroke="#252525" stroke-width="0.630746"/>
<path d="M169.199 281.332H113.133V337.398H169.199V281.332Z" stroke="#252525" stroke-width="0.630746"/>
<path d="M225.266 281.332H169.199V337.398H225.266V281.332Z" stroke="#252525" stroke-width="0.630746"/>
<path d="M281.331 281.332H225.265V337.398H281.331V281.332Z" stroke="#252525" stroke-width="0.630746"/>
<path d="M337.398 281.332H281.332V337.398H337.398V281.332Z" stroke="#252525" stroke-width="0.630746"/>
<path d="M393.464 281.332H337.398V337.398H393.464V281.332Z" stroke="#252525" stroke-width="0.630746"/>
<path d="M449.531 281.332H393.464V337.398H449.531V281.332Z" stroke="#252525" stroke-width="0.630746"/>
<path d="M505.597 281.332H449.531V337.398H505.597V281.332Z" stroke="#252525" stroke-width="0.630746"/>
<path d="M561.663 281.332H505.597V337.398H561.663V281.332Z" stroke="#252525" stroke-width="0.630746"/>
<path d="M617.729 281.332H561.663V337.398H617.729V281.332Z" stroke="#252525" stroke-width="0.630746"/>
<path d="M673.796 281.332H617.729V337.398H673.796V281.332Z" stroke="#252525" stroke-width="0.630746"/>
<path d="M729.862 281.332H673.796V337.398H729.862V281.332Z" stroke="#252525" stroke-width="0.630746"/>
<path d="M785.929 281.332H729.863V337.398H785.929V281.332Z" stroke="#252525" stroke-width="0.630746"/>
<path d="M841.995 281.332H785.929V337.398H841.995V281.332Z" stroke="#252525" stroke-width="0.630746"/>
<path d="M898.061 281.332H841.995V337.398H898.061V281.332Z" stroke="#252525" stroke-width="0.630746"/>
<path d="M954.128 281.332H898.062V337.398H954.128V281.332Z" stroke="#252525" stroke-width="0.630746"/>
<path d="M1010.19 281.332H954.127V337.398H1010.19V281.332Z" stroke="#252525" stroke-width="0.630746"/>
<path d="M1066.26 281.332H1010.19V337.398H1066.26V281.332Z" stroke="#252525" stroke-width="0.630746"/>
<path d="M57.0663 337.398H1V393.464H57.0663V337.398Z" stroke="#252525" stroke-width="0.630746"/>
<path d="M113.133 337.398H57.0664V393.464H113.133V337.398Z" stroke="#252525" stroke-width="0.630746"/>
<path d="M169.199 337.398H113.133V393.464H169.199V337.398Z" stroke="#252525" stroke-width="0.630746"/>
<path d="M225.266 337.398H169.199V393.464H225.266V337.398Z" stroke="#252525" stroke-width="0.630746"/>
<path d="M281.331 337.398H225.265V393.464H281.331V337.398Z" stroke="#252525" stroke-width="0.630746"/>
<path d="M337.398 337.398H281.332V393.464H337.398V337.398Z" stroke="#252525" stroke-width="0.630746"/>
<path d="M393.464 337.398H337.398V393.464H393.464V337.398Z" stroke="#252525" stroke-width="0.630746"/>
<path d="M449.531 337.398H393.464V393.464H449.531V337.398Z" stroke="#252525" stroke-width="0.630746"/>
<path d="M505.597 337.398H449.531V393.464H505.597V337.398Z" stroke="#252525" stroke-width="0.630746"/>
<path d="M561.663 337.398H505.597V393.464H561.663V337.398Z" stroke="#252525" stroke-width="0.630746"/>
<path d="M617.729 337.398H561.663V393.464H617.729V337.398Z" stroke="#252525" stroke-width="0.630746"/>
<path d="M673.796 337.398H617.729V393.464H673.796V337.398Z" stroke="#252525" stroke-width="0.630746"/>
<path d="M729.862 337.398H673.796V393.464H729.862V337.398Z" stroke="#252525" stroke-width="0.630746"/>
<path d="M785.929 337.398H729.863V393.464H785.929V337.398Z" stroke="#252525" stroke-width="0.630746"/>
<path d="M841.995 337.398H785.929V393.464H841.995V337.398Z" stroke="#252525" stroke-width="0.630746"/>
<path d="M898.061 337.398H841.995V393.464H898.061V337.398Z" stroke="#252525" stroke-width="0.630746"/>
<path d="M954.128 337.398H898.062V393.464H954.128V337.398Z" stroke="#252525" stroke-width="0.630746"/>
<path d="M1010.19 337.398H954.127V393.464H1010.19V337.398Z" stroke="#252525" stroke-width="0.630746"/>
<path d="M1066.26 337.398H1010.19V393.464H1066.26V337.398Z" stroke="#252525" stroke-width="0.630746"/>
<path d="M57.0663 393.464H1V449.531H57.0663V393.464Z" stroke="#252525" stroke-width="0.630746"/>
<path d="M113.133 393.464H57.0664V449.531H113.133V393.464Z" stroke="#252525" stroke-width="0.630746"/>
<path d="M169.199 393.464H113.133V449.531H169.199V393.464Z" stroke="#252525" stroke-width="0.630746"/>
<path d="M225.266 393.464H169.199V449.531H225.266V393.464Z" stroke="#252525" stroke-width="0.630746"/>
<path d="M281.331 393.464H225.265V449.531H281.331V393.464Z" stroke="#252525" stroke-width="0.630746"/>
<path d="M337.398 393.464H281.332V449.531H337.398V393.464Z" stroke="#252525" stroke-width="0.630746"/>
<path d="M393.464 393.464H337.398V449.531H393.464V393.464Z" stroke="#252525" stroke-width="0.630746"/>
<path d="M449.531 393.464H393.464V449.531H449.531V393.464Z" stroke="#252525" stroke-width="0.630746"/>
<path d="M505.597 393.464H449.531V449.531H505.597V393.464Z" stroke="#252525" stroke-width="0.630746"/>
<path d="M561.663 393.464H505.597V449.531H561.663V393.464Z" stroke="#252525" stroke-width="0.630746"/>
<path d="M617.729 393.464H561.663V449.531H617.729V393.464Z" stroke="#252525" stroke-width="0.630746"/>
<path d="M673.796 393.464H617.729V449.531H673.796V393.464Z" stroke="#252525" stroke-width="0.630746"/>
<path d="M729.862 393.464H673.796V449.531H729.862V393.464Z" stroke="#252525" stroke-width="0.630746"/>
<path d="M785.929 393.464H729.863V449.531H785.929V393.464Z" stroke="#252525" stroke-width="0.630746"/>
<path d="M841.995 393.464H785.929V449.531H841.995V393.464Z" stroke="#252525" stroke-width="0.630746"/>
<path d="M898.061 393.464H841.995V449.531H898.061V393.464Z" stroke="#252525" stroke-width="0.630746"/>
<path d="M954.128 393.464H898.062V449.531H954.128V393.464Z" stroke="#252525" stroke-width="0.630746"/>
<path d="M1010.19 393.464H954.127V449.531H1010.19V393.464Z" stroke="#252525" stroke-width="0.630746"/>
<path d="M1066.26 393.464H1010.19V449.531H1066.26V393.464Z" stroke="#252525" stroke-width="0.630746"/>
<path d="M57.0663 449.531H1V505.597H57.0663V449.531Z" stroke="#252525" stroke-width="0.630746"/>
<path d="M113.133 449.531H57.0664V505.597H113.133V449.531Z" stroke="#252525" stroke-width="0.630746"/>
<path d="M169.199 449.531H113.133V505.597H169.199V449.531Z" stroke="#252525" stroke-width="0.630746"/>
<path d="M225.266 449.531H169.199V505.597H225.266V449.531Z" stroke="#252525" stroke-width="0.630746"/>
<path d="M281.331 449.531H225.265V505.597H281.331V449.531Z" stroke="#252525" stroke-width="0.630746"/>
<path d="M337.398 449.531H281.332V505.597H337.398V449.531Z" stroke="#252525" stroke-width="0.630746"/>
<path d="M393.464 449.531H337.398V505.597H393.464V449.531Z" stroke="#252525" stroke-width="0.630746"/>
<path d="M449.531 449.531H393.464V505.597H449.531V449.531Z" stroke="#252525" stroke-width="0.630746"/>
<path d="M505.597 449.531H449.531V505.597H505.597V449.531Z" stroke="#252525" stroke-width="0.630746"/>
<path d="M561.663 449.531H505.597V505.597H561.663V449.531Z" stroke="#252525" stroke-width="0.630746"/>
<path d="M617.729 449.531H561.663V505.597H617.729V449.531Z" stroke="#252525" stroke-width="0.630746"/>
<path d="M673.796 449.531H617.729V505.597H673.796V449.531Z" stroke="#252525" stroke-width="0.630746"/>
<path d="M729.862 449.531H673.796V505.597H729.862V449.531Z" stroke="#252525" stroke-width="0.630746"/>
<path d="M785.929 449.531H729.863V505.597H785.929V449.531Z" stroke="#252525" stroke-width="0.630746"/>
<path d="M841.995 449.531H785.929V505.597H841.995V449.531Z" stroke="#252525" stroke-width="0.630746"/>
<path d="M898.061 449.531H841.995V505.597H898.061V449.531Z" stroke="#252525" stroke-width="0.630746"/>
<path d="M954.128 449.531H898.062V505.597H954.128V449.531Z" stroke="#252525" stroke-width="0.630746"/>
<path d="M1010.19 449.531H954.127V505.597H1010.19V449.531Z" stroke="#252525" stroke-width="0.630746"/>
<path d="M1066.26 449.531H1010.19V505.597H1066.26V449.531Z" stroke="#252525" stroke-width="0.630746"/>
<path d="M57.0663 505.597H1V561.663H57.0663V505.597Z" stroke="#252525" stroke-width="0.630746"/>
<path d="M113.133 505.597H57.0664V561.663H113.133V505.597Z" stroke="#252525" stroke-width="0.630746"/>
<path d="M169.199 505.597H113.133V561.663H169.199V505.597Z" stroke="#252525" stroke-width="0.630746"/>
<path d="M225.266 505.597H169.199V561.663H225.266V505.597Z" stroke="#252525" stroke-width="0.630746"/>
<path d="M281.331 505.597H225.265V561.663H281.331V505.597Z" stroke="#252525" stroke-width="0.630746"/>
<path d="M337.398 505.597H281.332V561.663H337.398V505.597Z" stroke="#252525" stroke-width="0.630746"/>
<path d="M393.464 505.597H337.398V561.663H393.464V505.597Z" stroke="#252525" stroke-width="0.630746"/>
<path d="M449.531 505.597H393.464V561.663H449.531V505.597Z" stroke="#252525" stroke-width="0.630746"/>
<path d="M505.597 505.597H449.531V561.663H505.597V505.597Z" stroke="#252525" stroke-width="0.630746"/>
<path d="M561.663 505.597H505.597V561.663H561.663V505.597Z" stroke="#252525" stroke-width="0.630746"/>
<path d="M617.729 505.597H561.663V561.663H617.729V505.597Z" stroke="#252525" stroke-width="0.630746"/>
<path d="M673.796 505.597H617.729V561.663H673.796V505.597Z" stroke="#252525" stroke-width="0.630746"/>
<path d="M729.862 505.597H673.796V561.663H729.862V505.597Z" stroke="#252525" stroke-width="0.630746"/>
<path d="M785.929 505.597H729.863V561.663H785.929V505.597Z" stroke="#252525" stroke-width="0.630746"/>
<path d="M841.995 505.597H785.929V561.663H841.995V505.597Z" stroke="#252525" stroke-width="0.630746"/>
<path d="M898.061 505.597H841.995V561.663H898.061V505.597Z" stroke="#252525" stroke-width="0.630746"/>
<path d="M954.128 505.597H898.062V561.663H954.128V505.597Z" stroke="#252525" stroke-width="0.630746"/>
<path d="M1010.19 505.597H954.127V561.663H1010.19V505.597Z" stroke="#252525" stroke-width="0.630746"/>
<path d="M1066.26 505.597H1010.19V561.663H1066.26V505.597Z" stroke="#252525" stroke-width="0.630746"/>
<path d="M57.0663 561.663H1V617.73H57.0663V561.663Z" stroke="#252525" stroke-width="0.630746"/>
<path d="M113.133 561.663H57.0664V617.73H113.133V561.663Z" stroke="#252525" stroke-width="0.630746"/>
<path d="M169.199 561.663H113.133V617.73H169.199V561.663Z" stroke="#252525" stroke-width="0.630746"/>
<path d="M225.266 561.663H169.199V617.73H225.266V561.663Z" stroke="#252525" stroke-width="0.630746"/>
<path d="M281.331 561.663H225.265V617.73H281.331V561.663Z" stroke="#252525" stroke-width="0.630746"/>
<path d="M337.398 561.663H281.332V617.73H337.398V561.663Z" stroke="#252525" stroke-width="0.630746"/>
<path d="M393.464 561.663H337.398V617.73H393.464V561.663Z" stroke="#252525" stroke-width="0.630746"/>
<path d="M449.531 561.663H393.464V617.73H449.531V561.663Z" stroke="#252525" stroke-width="0.630746"/>
<path d="M505.597 561.663H449.531V617.73H505.597V561.663Z" stroke="#252525" stroke-width="0.630746"/>
<path d="M561.663 561.663H505.597V617.73H561.663V561.663Z" stroke="#252525" stroke-width="0.630746"/>
<path d="M617.729 561.663H561.663V617.73H617.729V561.663Z" stroke="#252525" stroke-width="0.630746"/>
<path d="M673.796 561.663H617.729V617.73H673.796V561.663Z" stroke="#252525" stroke-width="0.630746"/>
<path d="M729.862 561.663H673.796V617.73H729.862V561.663Z" stroke="#252525" stroke-width="0.630746"/>
<path d="M785.929 561.663H729.863V617.73H785.929V561.663Z" stroke="#252525" stroke-width="0.630746"/>
<path d="M841.995 561.663H785.929V617.73H841.995V561.663Z" stroke="#252525" stroke-width="0.630746"/>
<path d="M898.061 561.663H841.995V617.73H898.061V561.663Z" stroke="#252525" stroke-width="0.630746"/>
<path d="M954.128 561.663H898.062V617.73H954.128V561.663Z" stroke="#252525" stroke-width="0.630746"/>
<path d="M1010.19 561.663H954.127V617.73H1010.19V561.663Z" stroke="#252525" stroke-width="0.630746"/>
<path d="M1066.26 561.663H1010.19V617.73H1066.26V561.663Z" stroke="#252525" stroke-width="0.630746"/>
<path d="M57.0663 617.73H1V673.796H57.0663V617.73Z" stroke="#252525" stroke-width="0.630746"/>
<path d="M113.133 617.73H57.0664V673.796H113.133V617.73Z" stroke="#252525" stroke-width="0.630746"/>
<path d="M169.199 617.73H113.133V673.796H169.199V617.73Z" stroke="#252525" stroke-width="0.630746"/>
<path d="M225.266 617.73H169.199V673.796H225.266V617.73Z" stroke="#252525" stroke-width="0.630746"/>
<path d="M281.331 617.73H225.265V673.796H281.331V617.73Z" stroke="#252525" stroke-width="0.630746"/>
<path d="M337.398 617.73H281.332V673.796H337.398V617.73Z" stroke="#252525" stroke-width="0.630746"/>
<path d="M393.464 617.73H337.398V673.796H393.464V617.73Z" stroke="#252525" stroke-width="0.630746"/>
<path d="M449.531 617.73H393.464V673.796H449.531V617.73Z" stroke="#252525" stroke-width="0.630746"/>
<path d="M505.597 617.73H449.531V673.796H505.597V617.73Z" stroke="#252525" stroke-width="0.630746"/>
<path d="M561.663 617.73H505.597V673.796H561.663V617.73Z" stroke="#252525" stroke-width="0.630746"/>
<path d="M617.729 617.73H561.663V673.796H617.729V617.73Z" stroke="#252525" stroke-width="0.630746"/>
<path d="M673.796 617.73H617.729V673.796H673.796V617.73Z" stroke="#252525" stroke-width="0.630746"/>
<path d="M729.862 617.73H673.796V673.796H729.862V617.73Z" stroke="#252525" stroke-width="0.630746"/>
<path d="M785.929 617.73H729.863V673.796H785.929V617.73Z" stroke="#252525" stroke-width="0.630746"/>
<path d="M841.995 617.73H785.929V673.796H841.995V617.73Z" stroke="#252525" stroke-width="0.630746"/>
<path d="M898.061 617.73H841.995V673.796H898.061V617.73Z" stroke="#252525" stroke-width="0.630746"/>
<path d="M954.128 617.73H898.062V673.796H954.128V617.73Z" stroke="#252525" stroke-width="0.630746"/>
<path d="M1010.19 617.73H954.127V673.796H1010.19V617.73Z" stroke="#252525" stroke-width="0.630746"/>
<path d="M1066.26 617.73H1010.19V673.796H1066.26V617.73Z" stroke="#252525" stroke-width="0.630746"/>
<path d="M57.0663 673.796H1V729.862H57.0663V673.796Z" stroke="#252525" stroke-width="0.630746"/>
<path d="M113.133 673.796H57.0664V729.862H113.133V673.796Z" stroke="#252525" stroke-width="0.630746"/>
<path d="M169.199 673.796H113.133V729.862H169.199V673.796Z" stroke="#252525" stroke-width="0.630746"/>
<path d="M225.266 673.796H169.199V729.862H225.266V673.796Z" stroke="#252525" stroke-width="0.630746"/>
<path d="M281.331 673.796H225.265V729.862H281.331V673.796Z" stroke="#252525" stroke-width="0.630746"/>
<path d="M337.398 673.796H281.332V729.862H337.398V673.796Z" stroke="#252525" stroke-width="0.630746"/>
<path d="M393.464 673.796H337.398V729.862H393.464V673.796Z" stroke="#252525" stroke-width="0.630746"/>
<path d="M449.531 673.796H393.464V729.862H449.531V673.796Z" stroke="#252525" stroke-width="0.630746"/>
<path d="M505.597 673.796H449.531V729.862H505.597V673.796Z" stroke="#252525" stroke-width="0.630746"/>
<path d="M561.663 673.796H505.597V729.862H561.663V673.796Z" stroke="#252525" stroke-width="0.630746"/>
<path d="M617.729 673.796H561.663V729.862H617.729V673.796Z" stroke="#252525" stroke-width="0.630746"/>
<path d="M673.796 673.796H617.729V729.862H673.796V673.796Z" stroke="#252525" stroke-width="0.630746"/>
<path d="M729.862 673.796H673.796V729.862H729.862V673.796Z" stroke="#252525" stroke-width="0.630746"/>
<path d="M785.929 673.796H729.863V729.862H785.929V673.796Z" stroke="#252525" stroke-width="0.630746"/>
<path d="M841.995 673.796H785.929V729.862H841.995V673.796Z" stroke="#252525" stroke-width="0.630746"/>
<path d="M898.061 673.796H841.995V729.862H898.061V673.796Z" stroke="#252525" stroke-width="0.630746"/>
<path d="M954.128 673.796H898.062V729.862H954.128V673.796Z" stroke="#252525" stroke-width="0.630746"/>
<path d="M1010.19 673.796H954.127V729.862H1010.19V673.796Z" stroke="#252525" stroke-width="0.630746"/>
<path d="M1066.26 673.796H1010.19V729.862H1066.26V673.796Z" stroke="#252525" stroke-width="0.630746"/>
<path d="M57.0663 729.862H1V785.929H57.0663V729.862Z" stroke="#252525" stroke-width="0.630746"/>
<path d="M113.133 729.862H57.0664V785.929H113.133V729.862Z" stroke="#252525" stroke-width="0.630746"/>
<path d="M169.199 729.862H113.133V785.929H169.199V729.862Z" stroke="#252525" stroke-width="0.630746"/>
<path d="M225.266 729.862H169.199V785.929H225.266V729.862Z" stroke="#252525" stroke-width="0.630746"/>
<path d="M281.331 729.862H225.265V785.929H281.331V729.862Z" stroke="#252525" stroke-width="0.630746"/>
<path d="M337.398 729.862H281.332V785.929H337.398V729.862Z" stroke="#252525" stroke-width="0.630746"/>
<path d="M393.464 729.862H337.398V785.929H393.464V729.862Z" stroke="#252525" stroke-width="0.630746"/>
<path d="M449.531 729.862H393.464V785.929H449.531V729.862Z" stroke="#252525" stroke-width="0.630746"/>
<path d="M505.597 729.862H449.531V785.929H505.597V729.862Z" stroke="#252525" stroke-width="0.630746"/>
<path d="M561.663 729.862H505.597V785.929H561.663V729.862Z" stroke="#252525" stroke-width="0.630746"/>
<path d="M617.729 729.862H561.663V785.929H617.729V729.862Z" stroke="#252525" stroke-width="0.630746"/>
<path d="M673.796 729.862H617.729V785.929H673.796V729.862Z" stroke="#252525" stroke-width="0.630746"/>
<path d="M729.862 729.862H673.796V785.929H729.862V729.862Z" stroke="#252525" stroke-width="0.630746"/>
<path d="M785.929 729.862H729.863V785.929H785.929V729.862Z" stroke="#252525" stroke-width="0.630746"/>
<path d="M841.995 729.862H785.929V785.929H841.995V729.862Z" stroke="#252525" stroke-width="0.630746"/>
<path d="M898.061 729.862H841.995V785.929H898.061V729.862Z" stroke="#252525" stroke-width="0.630746"/>
<path d="M954.128 729.862H898.062V785.929H954.128V729.862Z" stroke="#252525" stroke-width="0.630746"/>
<path d="M1010.19 729.862H954.127V785.929H1010.19V729.862Z" stroke="#252525" stroke-width="0.630746"/>
<path d="M1066.26 729.862H1010.19V785.929H1066.26V729.862Z" stroke="#252525" stroke-width="0.630746"/>
<path d="M57.0663 785.929H1V841.995H57.0663V785.929Z" stroke="#252525" stroke-width="0.630746"/>
<path d="M113.133 785.929H57.0664V841.995H113.133V785.929Z" stroke="#252525" stroke-width="0.630746"/>
<path d="M169.199 785.929H113.133V841.995H169.199V785.929Z" stroke="#252525" stroke-width="0.630746"/>
<path d="M225.266 785.929H169.199V841.995H225.266V785.929Z" stroke="#252525" stroke-width="0.630746"/>
<path d="M281.331 785.929H225.265V841.995H281.331V785.929Z" stroke="#252525" stroke-width="0.630746"/>
<path d="M337.398 785.929H281.332V841.995H337.398V785.929Z" stroke="#252525" stroke-width="0.630746"/>
<path d="M393.464 785.929H337.398V841.995H393.464V785.929Z" stroke="#252525" stroke-width="0.630746"/>
<path d="M449.531 785.929H393.464V841.995H449.531V785.929Z" stroke="#252525" stroke-width="0.630746"/>
<path d="M505.597 785.929H449.531V841.995H505.597V785.929Z" stroke="#252525" stroke-width="0.630746"/>
<path d="M561.663 785.929H505.597V841.995H561.663V785.929Z" stroke="#252525" stroke-width="0.630746"/>
<path d="M617.729 785.929H561.663V841.995H617.729V785.929Z" stroke="#252525" stroke-width="0.630746"/>
<path d="M673.796 785.929H617.729V841.995H673.796V785.929Z" stroke="#252525" stroke-width="0.630746"/>
<path d="M729.862 785.929H673.796V841.995H729.862V785.929Z" stroke="#252525" stroke-width="0.630746"/>
<path d="M785.929 785.929H729.863V841.995H785.929V785.929Z" stroke="#252525" stroke-width="0.630746"/>
<path d="M841.995 785.929H785.929V841.995H841.995V785.929Z" stroke="#252525" stroke-width="0.630746"/>
<path d="M898.061 785.929H841.995V841.995H898.061V785.929Z" stroke="#252525" stroke-width="0.630746"/>
<path d="M954.128 785.929H898.062V841.995H954.128V785.929Z" stroke="#252525" stroke-width="0.630746"/>
<path d="M1010.19 785.929H954.127V841.995H1010.19V785.929Z" stroke="#252525" stroke-width="0.630746"/>
<path d="M1066.26 785.929H1010.19V841.995H1066.26V785.929Z" stroke="#252525" stroke-width="0.630746"/>
<path d="M57.0663 841.995H1V898.061H57.0663V841.995Z" stroke="#252525" stroke-width="0.630746"/>
<path d="M113.133 841.995H57.0664V898.061H113.133V841.995Z" stroke="#252525" stroke-width="0.630746"/>
<path d="M169.199 841.995H113.133V898.061H169.199V841.995Z" stroke="#252525" stroke-width="0.630746"/>
<path d="M225.266 841.995H169.199V898.061H225.266V841.995Z" stroke="#252525" stroke-width="0.630746"/>
<path d="M281.331 841.995H225.265V898.061H281.331V841.995Z" stroke="#252525" stroke-width="0.630746"/>
<path d="M337.398 841.995H281.332V898.061H337.398V841.995Z" stroke="#252525" stroke-width="0.630746"/>
<path d="M393.464 841.995H337.398V898.061H393.464V841.995Z" stroke="#252525" stroke-width="0.630746"/>
<path d="M449.531 841.995H393.464V898.061H449.531V841.995Z" stroke="#252525" stroke-width="0.630746"/>
<path d="M505.597 841.995H449.531V898.061H505.597V841.995Z" stroke="#252525" stroke-width="0.630746"/>
<path d="M561.663 841.995H505.597V898.061H561.663V841.995Z" stroke="#252525" stroke-width="0.630746"/>
<path d="M617.729 841.995H561.663V898.061H617.729V841.995Z" stroke="#252525" stroke-width="0.630746"/>
<path d="M673.796 841.995H617.729V898.061H673.796V841.995Z" stroke="#252525" stroke-width="0.630746"/>
<path d="M729.862 841.995H673.796V898.061H729.862V841.995Z" stroke="#252525" stroke-width="0.630746"/>
<path d="M785.929 841.995H729.863V898.061H785.929V841.995Z" stroke="#252525" stroke-width="0.630746"/>
<path d="M841.995 841.995H785.929V898.061H841.995V841.995Z" stroke="#252525" stroke-width="0.630746"/>
<path d="M898.061 841.995H841.995V898.061H898.061V841.995Z" stroke="#252525" stroke-width="0.630746"/>
<path d="M954.128 841.995H898.062V898.061H954.128V841.995Z" stroke="#252525" stroke-width="0.630746"/>
<path d="M1010.19 841.995H954.127V898.061H1010.19V841.995Z" stroke="#252525" stroke-width="0.630746"/>
<path d="M1066.26 841.995H1010.19V898.061H1066.26V841.995Z" stroke="#252525" stroke-width="0.630746"/>
<path d="M57.0663 898.061H1V954.128H57.0663V898.061Z" stroke="#252525" stroke-width="0.630746"/>
<path d="M113.133 898.061H57.0664V954.128H113.133V898.061Z" stroke="#252525" stroke-width="0.630746"/>
<path d="M169.199 898.061H113.133V954.128H169.199V898.061Z" stroke="#252525" stroke-width="0.630746"/>
<path d="M225.266 898.061H169.199V954.128H225.266V898.061Z" stroke="#252525" stroke-width="0.630746"/>
<path d="M281.331 898.061H225.265V954.128H281.331V898.061Z" stroke="#252525" stroke-width="0.630746"/>
<path d="M337.398 898.061H281.332V954.128H337.398V898.061Z" stroke="#252525" stroke-width="0.630746"/>
<path d="M393.464 898.061H337.398V954.128H393.464V898.061Z" stroke="#252525" stroke-width="0.630746"/>
<path d="M449.531 898.061H393.464V954.128H449.531V898.061Z" stroke="#252525" stroke-width="0.630746"/>
<path d="M505.597 898.061H449.531V954.128H505.597V898.061Z" stroke="#252525" stroke-width="0.630746"/>
<path d="M561.663 898.061H505.597V954.128H561.663V898.061Z" stroke="#252525" stroke-width="0.630746"/>
<path d="M617.729 898.061H561.663V954.128H617.729V898.061Z" stroke="#252525" stroke-width="0.630746"/>
<path d="M673.796 898.061H617.729V954.128H673.796V898.061Z" stroke="#252525" stroke-width="0.630746"/>
<path d="M729.862 898.061H673.796V954.128H729.862V898.061Z" stroke="#252525" stroke-width="0.630746"/>
<path d="M785.929 898.061H729.863V954.128H785.929V898.061Z" stroke="#252525" stroke-width="0.630746"/>
<path d="M841.995 898.061H785.929V954.128H841.995V898.061Z" stroke="#252525" stroke-width="0.630746"/>
<path d="M898.061 898.061H841.995V954.128H898.061V898.061Z" stroke="#252525" stroke-width="0.630746"/>
<path d="M954.128 898.061H898.062V954.128H954.128V898.061Z" stroke="#252525" stroke-width="0.630746"/>
<path d="M1010.19 898.061H954.127V954.128H1010.19V898.061Z" stroke="#252525" stroke-width="0.630746"/>
<path d="M1066.26 898.061H1010.19V954.128H1066.26V898.061Z" stroke="#252525" stroke-width="0.630746"/>
<path d="M57.0663 954.128H1V1010.19H57.0663V954.128Z" stroke="#252525" stroke-width="0.630746"/>
<path d="M113.133 954.128H57.0664V1010.19H113.133V954.128Z" stroke="#252525" stroke-width="0.630746"/>
<path d="M169.199 954.128H113.133V1010.19H169.199V954.128Z" stroke="#252525" stroke-width="0.630746"/>
<path d="M225.266 954.128H169.199V1010.19H225.266V954.128Z" stroke="#252525" stroke-width="0.630746"/>
<path d="M281.331 954.128H225.265V1010.19H281.331V954.128Z" stroke="#252525" stroke-width="0.630746"/>
<path d="M337.398 954.128H281.332V1010.19H337.398V954.128Z" stroke="#252525" stroke-width="0.630746"/>
<path d="M393.464 954.128H337.398V1010.19H393.464V954.128Z" stroke="#252525" stroke-width="0.630746"/>
<path d="M449.531 954.128H393.464V1010.19H449.531V954.128Z" stroke="#252525" stroke-width="0.630746"/>
<path d="M505.597 954.128H449.531V1010.19H505.597V954.128Z" stroke="#252525" stroke-width="0.630746"/>
<path d="M561.663 954.128H505.597V1010.19H561.663V954.128Z" stroke="#252525" stroke-width="0.630746"/>
<path d="M617.729 954.128H561.663V1010.19H617.729V954.128Z" stroke="#252525" stroke-width="0.630746"/>
<path d="M673.796 954.128H617.729V1010.19H673.796V954.128Z" stroke="#252525" stroke-width="0.630746"/>
<path d="M729.862 954.128H673.796V1010.19H729.862V954.128Z" stroke="#252525" stroke-width="0.630746"/>
<path d="M785.929 954.128H729.863V1010.19H785.929V954.128Z" stroke="#252525" stroke-width="0.630746"/>
<path d="M841.995 954.128H785.929V1010.19H841.995V954.128Z" stroke="#252525" stroke-width="0.630746"/>
<path d="M898.061 954.128H841.995V1010.19H898.061V954.128Z" stroke="#252525" stroke-width="0.630746"/>
<path d="M954.128 954.128H898.062V1010.19H954.128V954.128Z" stroke="#252525" stroke-width="0.630746"/>
<path d="M1010.19 954.128H954.127V1010.19H1010.19V954.128Z" stroke="#252525" stroke-width="0.630746"/>
<path d="M1066.26 954.128H1010.19V1010.19H1066.26V954.128Z" stroke="#252525" stroke-width="0.630746"/>
<path d="M57.0663 1010.19H1V1066.26H57.0663V1010.19Z" stroke="#252525" stroke-width="0.630746"/>
<path d="M113.133 1010.19H57.0664V1066.26H113.133V1010.19Z" stroke="#252525" stroke-width="0.630746"/>
<path d="M169.199 1010.19H113.133V1066.26H169.199V1010.19Z" stroke="#252525" stroke-width="0.630746"/>
<path d="M225.266 1010.19H169.199V1066.26H225.266V1010.19Z" stroke="#252525" stroke-width="0.630746"/>
<path d="M281.331 1010.19H225.265V1066.26H281.331V1010.19Z" stroke="#252525" stroke-width="0.630746"/>
<path d="M337.398 1010.19H281.332V1066.26H337.398V1010.19Z" stroke="#252525" stroke-width="0.630746"/>
<path d="M393.464 1010.19H337.398V1066.26H393.464V1010.19Z" stroke="#252525" stroke-width="0.630746"/>
<path d="M449.531 1010.19H393.464V1066.26H449.531V1010.19Z" stroke="#252525" stroke-width="0.630746"/>
<path d="M505.597 1010.19H449.531V1066.26H505.597V1010.19Z" stroke="#252525" stroke-width="0.630746"/>
<path d="M561.663 1010.19H505.597V1066.26H561.663V1010.19Z" stroke="#252525" stroke-width="0.630746"/>
<path d="M617.729 1010.19H561.663V1066.26H617.729V1010.19Z" stroke="#252525" stroke-width="0.630746"/>
<path d="M673.796 1010.19H617.729V1066.26H673.796V1010.19Z" stroke="#252525" stroke-width="0.630746"/>
<path d="M729.862 1010.19H673.796V1066.26H729.862V1010.19Z" stroke="#252525" stroke-width="0.630746"/>
<path d="M785.929 1010.19H729.863V1066.26H785.929V1010.19Z" stroke="#252525" stroke-width="0.630746"/>
<path d="M841.995 1010.19H785.929V1066.26H841.995V1010.19Z" stroke="#252525" stroke-width="0.630746"/>
<path d="M898.061 1010.19H841.995V1066.26H898.061V1010.19Z" stroke="#252525" stroke-width="0.630746"/>
<path d="M954.128 1010.19H898.062V1066.26H954.128V1010.19Z" stroke="#252525" stroke-width="0.630746"/>
<path d="M1010.19 1010.19H954.127V1066.26H1010.19V1010.19Z" stroke="#252525" stroke-width="0.630746"/>
<path d="M1066.26 1010.19H1010.19V1066.26H1066.26V1010.19Z" stroke="#252525" stroke-width="0.630746"/>
</svg>
