<svg width="46" height="21" viewBox="0 0 46 21" fill="none" xmlns="http://www.w3.org/2000/svg">
<path d="M45.3916 15.5484L39.9192 6.07031L35.729 13.3207L39.1087 19.1768C41.6283 23.2485 47.6679 19.7918 45.3925 15.5493L45.3916 15.5484Z" fill="black"/>
<path d="M29.4692 2.40479L23.8215 12.1849C23.4222 12.8769 22.4226 12.8769 22.0233 12.1849L16.3894 2.42131C14.5389 -0.78762 9.90817 -0.789456 8.05496 2.41855L0.517281 15.4736C-1.78294 19.7675 4.18332 23.2748 6.74881 19.181C8.01549 16.9863 10.1294 13.3249 11.3254 11.2523C11.7247 10.5611 12.7197 10.5611 13.1189 11.2523C14.091 12.9366 15.6294 15.604 16.5766 17.2479C17.5597 18.9533 19.1531 20.2558 21.0586 20.7524C24.3162 21.6005 27.6004 20.1438 29.203 17.3682L37.8183 2.43875C35.9862 -0.797718 31.3252 -0.816993 29.4674 2.4057L29.4692 2.40479Z" fill="black"/>
</svg>
