<svg width="256" height="256" viewBox="0 0 256 256" fill="#9fbbbb" xmlns="http://www.w3.org/2000/svg">
<g clip-path="url(#clip0_2092_15)">
<path d="M238.719 25.0289C238.717 25.014 238.717 24.9988 238.719 24.9839C238.297 23.1304 237.364 21.4321 236.028 20.0803C234.691 18.7286 233.003 17.7774 231.154 17.3339C216.254 13.6989 192.814 17.5739 166.839 27.9739C140.659 38.4739 116.129 53.9739 99.5495 70.5839C94.2355 75.8703 89.2984 81.5224 84.7745 87.4989C73.6095 86.9989 63.7745 88.5889 55.4895 92.2039C26.6195 104.909 18.3745 137.424 16.1795 150.774C15.8618 152.671 15.9862 154.615 16.5429 156.456C17.0995 158.297 18.0735 159.985 19.389 161.388C20.7045 162.791 22.3259 163.871 24.1272 164.546C25.9285 165.22 27.8611 165.469 29.7745 165.274H29.8395L61.9995 161.764C62.0395 162.174 62.0844 162.549 62.1194 162.894C62.5325 166.813 64.2802 170.47 67.0695 173.254L82.7645 188.959C85.5437 191.752 89.2007 193.502 93.1195 193.914L94.1945 194.029L90.6945 226.149V226.214C90.5156 227.944 90.6997 229.692 91.2349 231.347C91.7702 233.001 92.6448 234.526 93.8029 235.824C94.961 237.121 96.3772 238.162 97.9607 238.881C99.5443 239.6 101.26 239.981 102.999 239.999C103.695 240 104.389 239.943 105.074 239.829C118.499 237.669 150.999 229.524 163.669 200.499C167.254 192.269 168.839 182.474 168.394 171.329C174.398 166.815 180.071 161.877 185.369 156.554C202.084 139.924 217.634 115.594 228.024 89.7939C238.369 64.1139 242.264 40.4989 238.719 25.0289ZM185.189 112.469C181.081 116.582 175.845 119.383 170.144 120.52C164.443 121.656 158.533 121.076 153.162 118.853C147.791 116.629 143.2 112.863 139.97 108.03C136.739 103.197 135.015 97.5145 135.015 91.7014C135.015 85.8883 136.739 80.2058 139.97 75.3728C143.2 70.5398 147.791 66.7734 153.162 64.5502C158.533 62.3271 164.443 61.7469 170.144 62.8832C175.845 64.0195 181.081 66.8212 185.189 70.9339C187.943 73.6462 190.13 76.8791 191.623 80.4444C193.115 84.0097 193.884 87.8362 193.884 91.7014C193.884 95.5665 193.115 99.3931 191.623 102.958C190.13 106.524 187.943 109.757 185.189 112.469Z" fill="#9fbbbb"/>
<path d="M79.9676 193.23C78.0329 192.99 76.077 193.464 74.4676 194.565C71.2726 196.75 68.0626 198.91 64.8226 201.015C58.2676 205.275 50.4276 197.795 54.3226 191.015L60.3976 180.515C61.2662 179.244 61.7498 177.75 61.7905 176.212C61.8312 174.673 61.4273 173.156 60.6272 171.841C59.8271 170.526 58.6648 169.47 57.2796 168.8C55.8944 168.129 54.3451 167.872 52.8176 168.06C46.0751 168.912 39.8078 171.984 35.0026 176.79C33.1726 178.625 27.6076 184.195 24.6126 205.42C23.7602 211.516 23.2228 217.653 23.0026 223.805C22.9753 224.872 23.162 225.935 23.5517 226.929C23.9415 227.924 24.5264 228.83 25.272 229.595C26.0177 230.359 26.9088 230.967 27.8931 231.382C28.8773 231.797 29.9346 232.01 31.0026 232.01H31.2026C37.3593 231.792 43.5007 231.258 49.6026 230.41C70.8376 227.41 76.4076 221.84 78.2376 220.01C83.0657 215.202 86.1295 208.906 86.9326 202.14C87.1897 200.035 86.6005 197.914 85.2944 196.243C83.9884 194.572 82.0724 193.488 79.9676 193.23Z" fill="#9fbbbb"/>
</g>
<defs>
<clipPath id="clip0_2092_15">
<rect width="256" height="256" fill="#9fbbbb"/>
</clipPath>
</defs>
</svg>
